<mxfile host="app.diagrams.net" modified="2022-11-17T08:41:41.719Z" agent="5.0 (Windows NT 10.0; Win64; x64) AppleWebKit/537.36 (KHTML, like Gecko) Chrome/107.0.0.0 Safari/537.36 Edg/107.0.1418.42" etag="xVYlNP9oYf-ne2DVrEmT" version="20.5.3" type="github">
  <diagram id="aAmvfXJiaD-3gEnAvCkZ" name="ページ1">
    <mxGraphModel dx="1547" dy="794" grid="1" gridSize="10" guides="1" tooltips="1" connect="1" arrows="1" fold="1" page="1" pageScale="1" pageWidth="827" pageHeight="1169" math="0" shadow="0">
      <root>
        <mxCell id="0" />
        <mxCell id="1" parent="0" />
        <mxCell id="m2bKb9FpEYA-puTCjQVF-1" value="users" style="rounded=0;whiteSpace=wrap;html=1;" vertex="1" parent="1">
          <mxGeometry x="240" y="100" width="60" height="30" as="geometry" />
        </mxCell>
        <mxCell id="m2bKb9FpEYA-puTCjQVF-2" value="retweets-ID" style="rounded=0;whiteSpace=wrap;html=1;" vertex="1" parent="1">
          <mxGeometry x="110" y="350" width="60" height="30" as="geometry" />
        </mxCell>
        <mxCell id="m2bKb9FpEYA-puTCjQVF-3" value="users-ID" style="rounded=0;whiteSpace=wrap;html=1;" vertex="1" parent="1">
          <mxGeometry x="384" y="370" width="60" height="30" as="geometry" />
        </mxCell>
        <mxCell id="m2bKb9FpEYA-puTCjQVF-4" value="users" style="rounded=0;whiteSpace=wrap;html=1;" vertex="1" parent="1">
          <mxGeometry x="384" y="300" width="60" height="30" as="geometry" />
        </mxCell>
        <mxCell id="m2bKb9FpEYA-puTCjQVF-5" value="lists-ID" style="rounded=0;whiteSpace=wrap;html=1;" vertex="1" parent="1">
          <mxGeometry x="384" y="240" width="60" height="30" as="geometry" />
        </mxCell>
        <mxCell id="m2bKb9FpEYA-puTCjQVF-6" value="users-ID" style="rounded=0;whiteSpace=wrap;html=1;" vertex="1" parent="1">
          <mxGeometry x="290" y="240" width="60" height="30" as="geometry" />
        </mxCell>
        <mxCell id="m2bKb9FpEYA-puTCjQVF-7" value="users-ID" style="rounded=0;whiteSpace=wrap;html=1;" vertex="1" parent="1">
          <mxGeometry x="200" y="240" width="60" height="30" as="geometry" />
        </mxCell>
        <mxCell id="m2bKb9FpEYA-puTCjQVF-8" value="lists" style="rounded=0;whiteSpace=wrap;html=1;" vertex="1" parent="1">
          <mxGeometry x="383.5" y="170" width="60" height="30" as="geometry" />
        </mxCell>
        <mxCell id="m2bKb9FpEYA-puTCjQVF-9" value="followere-list" style="rounded=0;whiteSpace=wrap;html=1;" vertex="1" parent="1">
          <mxGeometry x="290" y="170" width="60" height="30" as="geometry" />
        </mxCell>
        <mxCell id="m2bKb9FpEYA-puTCjQVF-10" value="follow-list" style="rounded=0;whiteSpace=wrap;html=1;" vertex="1" parent="1">
          <mxGeometry x="200" y="170" width="60" height="30" as="geometry" />
        </mxCell>
        <mxCell id="m2bKb9FpEYA-puTCjQVF-11" value="tweets" style="rounded=0;whiteSpace=wrap;html=1;" vertex="1" parent="1">
          <mxGeometry x="110" y="170" width="60" height="30" as="geometry" />
        </mxCell>
        <mxCell id="m2bKb9FpEYA-puTCjQVF-14" value="replies-ID" style="rounded=0;whiteSpace=wrap;html=1;" vertex="1" parent="1">
          <mxGeometry x="20" y="350" width="60" height="30" as="geometry" />
        </mxCell>
        <mxCell id="m2bKb9FpEYA-puTCjQVF-15" value="replies" style="rounded=0;whiteSpace=wrap;html=1;" vertex="1" parent="1">
          <mxGeometry x="20" y="300" width="60" height="30" as="geometry" />
        </mxCell>
        <mxCell id="m2bKb9FpEYA-puTCjQVF-16" value="retweets" style="rounded=0;whiteSpace=wrap;html=1;" vertex="1" parent="1">
          <mxGeometry x="110" y="300" width="60" height="30" as="geometry" />
        </mxCell>
        <mxCell id="m2bKb9FpEYA-puTCjQVF-17" value="tweets-ID" style="rounded=0;whiteSpace=wrap;html=1;" vertex="1" parent="1">
          <mxGeometry x="110" y="240" width="60" height="30" as="geometry" />
        </mxCell>
        <mxCell id="m2bKb9FpEYA-puTCjQVF-18" value="replies-ID" style="rounded=0;whiteSpace=wrap;html=1;" vertex="1" parent="1">
          <mxGeometry x="110" y="460" width="60" height="30" as="geometry" />
        </mxCell>
        <mxCell id="m2bKb9FpEYA-puTCjQVF-19" value="replies" style="rounded=0;whiteSpace=wrap;html=1;" vertex="1" parent="1">
          <mxGeometry x="110" y="400" width="60" height="30" as="geometry" />
        </mxCell>
        <mxCell id="m2bKb9FpEYA-puTCjQVF-20" value="" style="endArrow=none;html=1;rounded=0;" edge="1" parent="1" source="m2bKb9FpEYA-puTCjQVF-11" target="m2bKb9FpEYA-puTCjQVF-1">
          <mxGeometry width="50" height="50" relative="1" as="geometry">
            <mxPoint x="120" y="410" as="sourcePoint" />
            <mxPoint x="170" y="360" as="targetPoint" />
          </mxGeometry>
        </mxCell>
        <mxCell id="m2bKb9FpEYA-puTCjQVF-21" value="" style="endArrow=none;html=1;rounded=0;" edge="1" parent="1" source="m2bKb9FpEYA-puTCjQVF-10" target="m2bKb9FpEYA-puTCjQVF-1">
          <mxGeometry width="50" height="50" relative="1" as="geometry">
            <mxPoint x="177.8571428571429" y="180" as="sourcePoint" />
            <mxPoint x="252.1428571428571" y="140" as="targetPoint" />
          </mxGeometry>
        </mxCell>
        <mxCell id="m2bKb9FpEYA-puTCjQVF-22" value="" style="endArrow=none;html=1;rounded=0;" edge="1" parent="1" source="m2bKb9FpEYA-puTCjQVF-16" target="m2bKb9FpEYA-puTCjQVF-17">
          <mxGeometry width="50" height="50" relative="1" as="geometry">
            <mxPoint x="187.8571428571429" y="190" as="sourcePoint" />
            <mxPoint x="262.1428571428571" y="150" as="targetPoint" />
          </mxGeometry>
        </mxCell>
        <mxCell id="m2bKb9FpEYA-puTCjQVF-23" value="" style="endArrow=none;html=1;rounded=0;" edge="1" parent="1" source="m2bKb9FpEYA-puTCjQVF-15" target="m2bKb9FpEYA-puTCjQVF-17">
          <mxGeometry width="50" height="50" relative="1" as="geometry">
            <mxPoint x="197.8571428571429" y="200" as="sourcePoint" />
            <mxPoint x="60" y="220" as="targetPoint" />
          </mxGeometry>
        </mxCell>
        <mxCell id="m2bKb9FpEYA-puTCjQVF-24" value="" style="endArrow=none;html=1;rounded=0;" edge="1" parent="1" source="m2bKb9FpEYA-puTCjQVF-15" target="m2bKb9FpEYA-puTCjQVF-14">
          <mxGeometry width="50" height="50" relative="1" as="geometry">
            <mxPoint x="207.8571428571429" y="210" as="sourcePoint" />
            <mxPoint x="282.1428571428571" y="170" as="targetPoint" />
          </mxGeometry>
        </mxCell>
        <mxCell id="m2bKb9FpEYA-puTCjQVF-25" value="" style="endArrow=none;html=1;rounded=0;" edge="1" parent="1" source="m2bKb9FpEYA-puTCjQVF-17" target="m2bKb9FpEYA-puTCjQVF-11">
          <mxGeometry width="50" height="50" relative="1" as="geometry">
            <mxPoint x="230" y="180" as="sourcePoint" />
            <mxPoint x="292.1428571428571" y="180" as="targetPoint" />
          </mxGeometry>
        </mxCell>
        <mxCell id="m2bKb9FpEYA-puTCjQVF-28" value="" style="endArrow=none;html=1;rounded=0;" edge="1" parent="1" source="m2bKb9FpEYA-puTCjQVF-19" target="m2bKb9FpEYA-puTCjQVF-2">
          <mxGeometry width="50" height="50" relative="1" as="geometry">
            <mxPoint x="150" y="310" as="sourcePoint" />
            <mxPoint x="150" y="280" as="targetPoint" />
          </mxGeometry>
        </mxCell>
        <mxCell id="m2bKb9FpEYA-puTCjQVF-29" value="" style="endArrow=none;html=1;rounded=0;exitX=0.5;exitY=1;exitDx=0;exitDy=0;" edge="1" parent="1" source="m2bKb9FpEYA-puTCjQVF-16" target="m2bKb9FpEYA-puTCjQVF-2">
          <mxGeometry width="50" height="50" relative="1" as="geometry">
            <mxPoint x="160" y="320" as="sourcePoint" />
            <mxPoint x="160" y="290" as="targetPoint" />
          </mxGeometry>
        </mxCell>
        <mxCell id="m2bKb9FpEYA-puTCjQVF-30" value="" style="endArrow=none;html=1;rounded=0;" edge="1" parent="1" source="m2bKb9FpEYA-puTCjQVF-19" target="m2bKb9FpEYA-puTCjQVF-18">
          <mxGeometry width="50" height="50" relative="1" as="geometry">
            <mxPoint x="170" y="330" as="sourcePoint" />
            <mxPoint x="170" y="300" as="targetPoint" />
          </mxGeometry>
        </mxCell>
        <mxCell id="m2bKb9FpEYA-puTCjQVF-31" value="" style="endArrow=none;html=1;rounded=0;" edge="1" parent="1" source="m2bKb9FpEYA-puTCjQVF-6" target="m2bKb9FpEYA-puTCjQVF-9">
          <mxGeometry width="50" height="50" relative="1" as="geometry">
            <mxPoint x="180" y="340" as="sourcePoint" />
            <mxPoint x="180" y="310" as="targetPoint" />
          </mxGeometry>
        </mxCell>
        <mxCell id="m2bKb9FpEYA-puTCjQVF-32" value="" style="endArrow=none;html=1;rounded=0;" edge="1" parent="1" source="m2bKb9FpEYA-puTCjQVF-7" target="m2bKb9FpEYA-puTCjQVF-10">
          <mxGeometry width="50" height="50" relative="1" as="geometry">
            <mxPoint x="190" y="350" as="sourcePoint" />
            <mxPoint x="190" y="320" as="targetPoint" />
          </mxGeometry>
        </mxCell>
        <mxCell id="m2bKb9FpEYA-puTCjQVF-33" value="" style="endArrow=none;html=1;rounded=0;" edge="1" parent="1" source="m2bKb9FpEYA-puTCjQVF-5" target="m2bKb9FpEYA-puTCjQVF-8">
          <mxGeometry width="50" height="50" relative="1" as="geometry">
            <mxPoint x="200" y="360" as="sourcePoint" />
            <mxPoint x="200" y="330" as="targetPoint" />
          </mxGeometry>
        </mxCell>
        <mxCell id="m2bKb9FpEYA-puTCjQVF-34" value="" style="endArrow=none;html=1;rounded=0;" edge="1" parent="1" source="m2bKb9FpEYA-puTCjQVF-8" target="m2bKb9FpEYA-puTCjQVF-1">
          <mxGeometry width="50" height="50" relative="1" as="geometry">
            <mxPoint x="210" y="370" as="sourcePoint" />
            <mxPoint x="210" y="340" as="targetPoint" />
          </mxGeometry>
        </mxCell>
        <mxCell id="m2bKb9FpEYA-puTCjQVF-35" value="" style="endArrow=none;html=1;rounded=0;" edge="1" parent="1" source="m2bKb9FpEYA-puTCjQVF-9" target="m2bKb9FpEYA-puTCjQVF-1">
          <mxGeometry width="50" height="50" relative="1" as="geometry">
            <mxPoint x="220" y="380" as="sourcePoint" />
            <mxPoint x="220" y="350" as="targetPoint" />
          </mxGeometry>
        </mxCell>
        <mxCell id="m2bKb9FpEYA-puTCjQVF-36" value="" style="endArrow=none;html=1;rounded=0;" edge="1" parent="1" source="m2bKb9FpEYA-puTCjQVF-3" target="m2bKb9FpEYA-puTCjQVF-4">
          <mxGeometry width="50" height="50" relative="1" as="geometry">
            <mxPoint x="230" y="390" as="sourcePoint" />
            <mxPoint x="230" y="360" as="targetPoint" />
          </mxGeometry>
        </mxCell>
        <mxCell id="m2bKb9FpEYA-puTCjQVF-37" value="" style="endArrow=none;html=1;rounded=0;" edge="1" parent="1" source="m2bKb9FpEYA-puTCjQVF-4" target="m2bKb9FpEYA-puTCjQVF-5">
          <mxGeometry width="50" height="50" relative="1" as="geometry">
            <mxPoint x="240" y="400" as="sourcePoint" />
            <mxPoint x="240" y="370" as="targetPoint" />
          </mxGeometry>
        </mxCell>
      </root>
    </mxGraphModel>
  </diagram>
</mxfile>
